<svg id="icons" xmlns="http://www.w3.org/2000/svg" xmlns:xlink="http://www.w3.org/1999/xlink" width="40" height="40" viewBox="0 0 40 40">
  <defs>
    <symbol id="_download_svg" data-name="_download_svg" viewBox="0 0 40 40">
      <rect id="bounds" width="40" height="40" fill="none"/>
      <polyline points="23 35 35 35 35 12.5 27.5 5 5 5 5 35 17 35" fill="none" stroke="#7f7f7f" stroke-linecap="round" stroke-linejoin="round" stroke-width="2.5"/>
      <polyline points="28 5.5 28 12 34.5 12" fill="none" stroke="#7f7f7f" stroke-linecap="round" stroke-linejoin="round" stroke-width="2.5"/>
      <polygon points="17 26.5 17 30.5 12.5 30.5 20 38 27.5 30.5 23 30.5 23 26.5 17 26.5" fill="none" stroke="#7f7f7f" stroke-linecap="round" stroke-linejoin="round" stroke-width="2.5"/>
      <g>
        <path d="M12.859,23.226a4.891,4.891,0,0,1-2.166-.463l-.113-.055V20.83l.282.125a8.489,8.489,0,0,0,1.227.456,3.526,3.526,0,0,0,.89.129,1.16,1.16,0,0,0,.67-.158.474.474,0,0,0,.19-.42.445.445,0,0,0-.084-.268,1.159,1.159,0,0,0-.3-.274,8.44,8.44,0,0,0-.926-.482,4.725,4.725,0,0,1-1.054-.637,2.485,2.485,0,0,1-.584-.737,2.141,2.141,0,0,1-.223-1,2.1,2.1,0,0,1,.731-1.684,2.946,2.946,0,0,1,1.954-.6,4.529,4.529,0,0,1,1.142.142,7.745,7.745,0,0,1,1.116.391l.181.079-.654,1.576-.184-.076a7.06,7.06,0,0,0-.944-.327,2.9,2.9,0,0,0-.707-.09.821.821,0,0,0-.547.157.476.476,0,0,0-.167.386.462.462,0,0,0,.065.253.874.874,0,0,0,.248.238,8.805,8.805,0,0,0,.959.5,4.082,4.082,0,0,1,1.483,1.045,2.134,2.134,0,0,1,.423,1.335,2.1,2.1,0,0,1-.791,1.722A3.31,3.31,0,0,1,12.859,23.226Z" fill="#7f7f7f"/>
        <path d="M18.6,23.125l-2.626-7.74h2l1.425,4.508q.095.318.2.719c.052-.21.115-.447.189-.713l1.438-4.514h2l-2.631,7.74Z" fill="#7f7f7f"/>
        <path d="M26.824,23.226a3.439,3.439,0,0,1-2.687-1.043,4.274,4.274,0,0,1-.927-2.938,3.9,3.9,0,0,1,1.077-2.914,4.066,4.066,0,0,1,2.959-1.051,5.691,5.691,0,0,1,2.258.468l.181.078-.675,1.626-.192-.1a3.516,3.516,0,0,0-1.582-.38,1.86,1.86,0,0,0-1.468.611,2.449,2.449,0,0,0-.556,1.689,2.764,2.764,0,0,0,.447,1.7,1.5,1.5,0,0,0,1.266.552,4.847,4.847,0,0,0,.788-.067V20.3H26.322V18.6h3.313v4.15L29.5,22.8a8.454,8.454,0,0,1-1.366.332A8.967,8.967,0,0,1,26.824,23.226Z" fill="#7f7f7f"/>
      </g>
    </symbol>
  </defs>
  <use width="40" height="40" xlink:href="#_download_svg"/>
</svg>
