<svg id="icons" xmlns="http://www.w3.org/2000/svg" xmlns:xlink="http://www.w3.org/1999/xlink" width="40" height="40" viewBox="0 0 40 40">
  <defs>
    <symbol id="_smudge" data-name="_smudge" viewBox="0 0 40 40">
      <path d="M26.769,18.115a2.308,2.308,0,0,0-3.217.062A2.358,2.358,0,0,0,23,20.656l-.017-.017a2.307,2.307,0,0,0-3.216.062,2.23,2.23,0,0,0,0,3.154h0l-6.31-6.31A2.231,2.231,0,1,0,10.3,20.7h0L21.344,31.742H16.076a2.231,2.231,0,1,0,0,4.462h0s7.264.186,9.045.186c3.652,0,4.707-.513,5.687-1.493l4.732-4.732a6.693,6.693,0,0,0,0-9.464l-5.048-5.048a2.23,2.23,0,0,0-3.154,0h0a2.356,2.356,0,0,0-.552,2.479Z" fill="none" stroke="#7f7f7f" stroke-linecap="round" stroke-linejoin="round" stroke-width="2.5"/>
      <path d="M6.205,30.393c3.536-3.536-4.741-11.078.563-16.382,6.245-6.245,11.72,4.1,17.487-1.667C25.617,10.981,31.935,5,31.935,5" fill="none" stroke="#7f7f7f" stroke-linecap="round" stroke-linejoin="round" stroke-width="2.5"/>
      <path d="M5,8c3.585-2.541,7.185-3.67,13.437-.282,1.293.7,1.624.725,3.488-1.139L23.5,5" fill="none" stroke="#7f7f7f" stroke-linecap="round" stroke-linejoin="round" stroke-width="2.5"/>
      <rect id="bounds" width="40" height="40" fill="none"/>
    </symbol>
  </defs>
  <use width="40" height="40" xlink:href="#_smudge"/>
</svg>
